<svg 
 xmlns="http://www.w3.org/2000/svg"
 xmlns:xlink="http://www.w3.org/1999/xlink"
 width="344px" height="78px">
<path fill-rule="evenodd"  fill="rgb(255, 255, 255)"
 d="M324.407,61.410 L310.665,66.247 L291.426,73.063 L291.426,58.442 L303.629,54.154 L310.665,51.626 L323.088,47.228 L310.665,42.831 L303.629,40.302 L291.426,36.015 L291.426,21.393 L310.665,28.209 L324.407,33.047 L343.645,39.972 L343.645,54.594 L324.407,61.410 ZM230.860,77.925 L216.962,77.925 L217.050,77.837 L225.495,66.842 L240.624,47.227 L247.572,38.255 L256.017,27.348 L216.874,27.348 L224.000,16.000 L264.461,16.353 L278.270,16.353 L269.738,27.348 L254.433,47.227 L247.484,56.199 L239.216,66.842 L278.534,66.842 L278.534,77.837 L230.948,77.837 L230.860,77.925 ZM216.554,77.837 L216.554,78.013 L216.466,77.837 L216.554,77.837 ZM191.397,48.722 L191.397,77.749 L180.402,77.749 L180.402,48.898 L178.907,47.051 L155.070,16.177 L168.967,16.177 L185.856,38.079 L202.744,16.177 L216.554,16.177 L192.717,47.051 L191.397,48.722 ZM147.254,46.106 C145.759,46.810 144.175,47.250 142.504,47.426 L151.300,65.018 L156.929,76.013 L144.615,76.013 L138.986,65.018 L133.092,53.495 L132.829,52.967 C130.893,49.801 127.463,47.690 123.505,47.690 L112.510,47.690 L112.510,76.013 L101.515,76.013 L101.515,14.441 L140.393,14.441 C144.967,14.441 149.101,16.288 152.092,19.279 C155.082,22.269 156.929,26.403 156.929,30.977 C156.929,37.662 152.971,43.468 147.254,46.106 ZM144.351,27.019 C143.648,26.315 142.328,25.436 140.393,25.436 L112.510,25.436 L112.510,36.783 L140.393,36.695 C141.185,36.695 141.976,36.519 142.680,36.167 C144.703,35.287 146.022,33.264 146.022,31.065 C146.022,29.042 144.967,27.635 144.351,27.019 ZM86.357,42.306 L76.353,77.486 L62.061,77.486 L72.065,42.306 L75.913,28.564 L83.828,0.531 L98.120,0.531 L90.204,28.564 L86.357,42.306 ZM20.000,63.190 L0.762,56.374 L0.762,41.753 L20.000,34.937 L33.742,30.099 L52.981,23.283 L52.981,37.905 L40.778,42.192 L33.742,44.611 L21.320,49.008 L33.742,53.406 L40.778,55.934 L52.981,60.222 L52.981,74.843 L33.742,68.027 L20.000,63.190 ZM154.982,78.013 L154.982,77.837 L155.158,77.837 L154.982,78.013 Z"/>
</svg>